<svg width="180" height="52" viewBox="0 0 180 52" fill="none" xmlns="http://www.w3.org/2000/svg">
<rect x="0.5" y="0.5" width="179" height="51" rx="3.5" fill="white" fill-opacity="0.9"/>
<rect x="0.5" y="0.5" width="179" height="51" rx="3.5" stroke="#F2F2F2"/>
<g clip-path="url(#clip0_3517_410)">
<path d="M84.8727 26.3078C84.8727 29.6391 82.3433 32.0939 79.2391 32.0939C76.1349 32.0939 73.6055 29.6391 73.6055 26.3078C73.6055 22.953 76.1349 20.5217 79.2391 20.5217C82.3433 20.5217 84.8727 22.953 84.8727 26.3078ZM82.4066 26.3078C82.4066 24.2261 80.9406 22.8017 79.2391 22.8017C77.5376 22.8017 76.0716 24.2261 76.0716 26.3078C76.0716 28.3687 77.5376 29.8139 79.2391 29.8139C80.9406 29.8139 82.4066 28.3661 82.4066 26.3078Z" fill="#EA4335"/>
<path d="M97.0262 26.3078C97.0262 29.6391 94.4967 32.0939 91.3925 32.0939C88.2883 32.0939 85.7589 29.6391 85.7589 26.3078C85.7589 22.9556 88.2883 20.5217 91.3925 20.5217C94.4967 20.5217 97.0262 22.953 97.0262 26.3078ZM94.56 26.3078C94.56 24.2261 93.094 22.8017 91.3925 22.8017C89.6911 22.8017 88.2251 24.2261 88.2251 26.3078C88.2251 28.3687 89.6911 29.8139 91.3925 29.8139C93.094 29.8139 94.56 28.3661 94.56 26.3078Z" fill="#FBBC05"/>
<path d="M108.673 20.8713V31.2591C108.673 35.5322 106.227 37.2774 103.336 37.2774C100.614 37.2774 98.9758 35.4017 98.358 33.8678L100.505 32.9469C100.887 33.8887 101.824 35 103.333 35C105.184 35 106.331 33.8235 106.331 31.6087V30.7765H106.245C105.693 31.4782 104.63 32.0913 103.288 32.0913C100.48 32.0913 97.9073 29.5713 97.9073 26.3287C97.9073 23.0626 100.48 20.5217 103.288 20.5217C104.627 20.5217 105.691 21.1348 106.245 21.8156H106.331V20.8739H108.673V20.8713ZM106.506 26.3287C106.506 24.2913 105.187 22.8017 103.508 22.8017C101.807 22.8017 100.381 24.2913 100.381 26.3287C100.381 28.3452 101.807 29.8139 103.508 29.8139C105.187 29.8139 106.506 28.3452 106.506 26.3287Z" fill="#4285F4"/>
<path d="M112.535 14.7826V31.7391H110.129V14.7826H112.535Z" fill="#34A853"/>
<path d="M121.908 28.2122L123.822 29.527C123.204 30.4687 121.715 32.0913 119.143 32.0913C115.953 32.0913 113.57 29.5504 113.57 26.3052C113.57 22.8644 115.973 20.5191 118.867 20.5191C121.781 20.5191 123.207 22.9087 123.673 24.2L123.928 24.8574L116.421 28.0609C116.996 29.2217 117.89 29.8139 119.143 29.8139C120.399 29.8139 121.27 29.1774 121.908 28.2122ZM116.016 26.1304L121.034 23.9835C120.758 23.2609 119.928 22.7574 118.951 22.7574C117.697 22.7574 115.953 23.8974 116.016 26.1304Z" fill="#EA4335"/>
<path d="M64.5005 24.8026V22.3478H72.5294C72.6078 22.7757 72.6484 23.2817 72.6484 23.8296C72.6484 25.6713 72.1597 27.9487 70.5848 29.5713C69.053 31.2148 67.0957 32.0913 64.503 32.0913C59.6973 32.0913 55.6563 28.0583 55.6563 23.107C55.6563 18.1557 59.6973 14.1226 64.503 14.1226C67.1616 14.1226 69.0555 15.1974 70.4785 16.5983L68.7972 18.3304C67.7768 17.3444 66.3944 16.5774 64.5005 16.5774C60.9912 16.5774 58.2465 19.4913 58.2465 23.107C58.2465 26.7226 60.9912 29.6365 64.5005 29.6365C66.7767 29.6365 68.0731 28.6948 68.9036 27.8391C69.5771 27.1452 70.0202 26.1539 70.1949 24.8L64.5005 24.8026Z" fill="#4285F4"/>
</g>
<defs>
<clipPath id="clip0_3517_410">
<rect width="68.8696" height="24" fill="white" transform="translate(55.5652 14)"/>
</clipPath>
</defs>
</svg>
