<svg width="180" height="52" viewBox="0 0 180 52" fill="none" xmlns="http://www.w3.org/2000/svg">
<g clip-path="url(#clip0_14752_924)">
<path d="M176 0.5H4C2.067 0.5 0.5 2.067 0.5 4V48C0.5 49.933 2.067 51.5 4 51.5H176C177.933 51.5 179.5 49.933 179.5 48V4C179.5 2.067 177.933 0.5 176 0.5Z" fill="white" fill-opacity="0.9"/>
<path d="M176 0.5H4C2.067 0.5 0.5 2.067 0.5 4V48C0.5 49.933 2.067 51.5 4 51.5H176C177.933 51.5 179.5 49.933 179.5 48V4C179.5 2.067 177.933 0.5 176 0.5Z" stroke="#F2F2F2"/>
<path d="M98.7826 18.3543C98.7826 20.9032 96.7886 22.7814 94.3415 22.7814C91.8944 22.7814 89.9004 20.9032 89.9004 18.3543C89.9004 15.7875 91.8944 13.9272 94.3415 13.9272C96.7886 13.9272 98.7826 15.7875 98.7826 18.3543ZM96.8385 18.3543C96.8385 16.7615 95.6828 15.6717 94.3415 15.6717C93.0002 15.6717 91.8445 16.7615 91.8445 18.3543C91.8445 19.9312 93.0002 21.0369 94.3415 21.0369C95.6828 21.0369 96.8385 19.9292 96.8385 18.3543Z" fill="#EA4335"/>
<path d="M108.363 18.3543C108.363 20.9032 106.369 22.7814 103.922 22.7814C101.475 22.7814 99.4812 20.9032 99.4812 18.3543C99.4812 15.7895 101.475 13.9272 103.922 13.9272C106.369 13.9272 108.363 15.7875 108.363 18.3543ZM106.419 18.3543C106.419 16.7615 105.264 15.6717 103.922 15.6717C102.581 15.6717 101.425 16.7615 101.425 18.3543C101.425 19.9312 102.581 21.0369 103.922 21.0369C105.264 21.0369 106.419 19.9292 106.419 18.3543Z" fill="#FBBC05"/>
<path d="M117.545 14.1947V22.1427C117.545 25.4122 115.617 26.7475 113.337 26.7475C111.192 26.7475 109.9 25.3124 109.413 24.1387L111.106 23.4341C111.407 24.1547 112.146 25.005 113.335 25.005C114.794 25.005 115.699 24.1048 115.699 22.4102V21.7735H115.631C115.196 22.3104 114.357 22.7794 113.299 22.7794C111.086 22.7794 109.058 20.8513 109.058 18.3703C109.058 15.8713 111.086 13.9272 113.299 13.9272C114.355 13.9272 115.194 14.3963 115.631 14.9173H115.699V14.1967H117.545V14.1947ZM115.836 18.3703C115.836 16.8114 114.796 15.6717 113.473 15.6717C112.132 15.6717 111.008 16.8114 111.008 18.3703C111.008 19.9132 112.132 21.0369 113.473 21.0369C114.796 21.0369 115.836 19.9132 115.836 18.3703Z" fill="#4285F4"/>
<path d="M120.589 9.53564V22.5096H118.693V9.53564H120.589Z" fill="#34A853"/>
<path d="M127.978 19.811L129.487 20.8169C129 21.5375 127.826 22.779 125.798 22.779C123.283 22.779 121.405 20.8349 121.405 18.3519C121.405 15.7192 123.299 13.9248 125.581 13.9248C127.878 13.9248 129.002 15.7531 129.369 16.7411L129.571 17.2441L123.653 19.6952C124.106 20.5834 124.81 21.0365 125.798 21.0365C126.788 21.0365 127.475 20.5495 127.978 19.811ZM123.333 18.2182L127.289 16.5755C127.072 16.0226 126.417 15.6374 125.647 15.6374C124.659 15.6374 123.283 16.5096 123.333 18.2182Z" fill="#EA4335"/>
<path d="M82.7229 17.2023V15.3241H89.0521C89.114 15.6514 89.1459 16.0387 89.1459 16.4578C89.1459 17.867 88.7607 19.6095 87.5192 20.851C86.3116 22.1085 84.7687 22.7791 82.7249 22.7791C78.9365 22.7791 75.7509 19.6933 75.7509 15.9049C75.7509 12.1166 78.9365 9.03076 82.7249 9.03076C84.8206 9.03076 86.3136 9.85311 87.4354 10.925L86.1101 12.2503C85.3057 11.4958 84.2159 10.909 82.7229 10.909C79.9564 10.909 77.7928 13.1385 77.7928 15.9049C77.7928 18.6714 79.9564 20.9009 82.7229 20.9009C84.5173 20.9009 85.5392 20.1803 86.1939 19.5257C86.7248 18.9947 87.0741 18.2363 87.2118 17.2003L82.7229 17.2023Z" fill="#4285F4"/>
<path d="M80.9453 29.7564L78.9962 35.1479H82.973L81.0081 29.7564H80.9453ZM77.3143 39.8163H75.6166L80.1122 27.8701H81.857L86.3525 39.8163H84.6549L83.5074 36.5783H78.4774L77.3143 39.8163Z" fill="#747474"/>
<path d="M87.1264 31.6422H88.6039V32.774H88.6668C88.8947 32.3771 89.2523 32.047 89.7357 31.7837C90.2269 31.5125 90.7299 31.375 91.2447 31.375C92.2507 31.375 93.0209 31.6658 93.5553 32.2395C94.0976 32.8054 94.3727 33.6188 94.3727 34.6759V39.8159H92.8323V34.786C92.8008 33.4459 92.1288 32.774 90.8203 32.774C90.2112 32.774 89.6964 33.0255 89.2798 33.5285C88.8711 34.0236 88.6668 34.6091 88.6668 35.289V39.8159H87.1264V31.6422Z" fill="#747474"/>
<path d="M97.2157 37.3167C97.2157 37.7175 97.3808 38.0515 97.7187 38.3227C98.0528 38.5859 98.4496 38.7156 98.9133 38.7156C99.55 38.7156 100.124 38.4798 100.627 38.0083C101.138 37.5289 101.397 36.963 101.397 36.3107C100.914 35.9334 100.242 35.7448 99.3849 35.7448C98.764 35.7448 98.2453 35.8981 97.8288 36.2006C97.4201 36.4954 97.2157 36.8687 97.2157 37.3167ZM99.1963 31.375C100.328 31.375 101.216 31.6815 101.868 32.2867C102.529 32.8958 102.859 33.7289 102.859 34.786V39.8159H101.397V38.6842H101.334C100.693 39.6195 99.8447 40.0832 98.7876 40.0832C97.8838 40.0832 97.1293 39.8159 96.5241 39.2815C95.9268 38.7471 95.6281 38.083 95.6281 37.2852C95.6281 36.4364 95.9464 35.7684 96.587 35.2732C97.2236 34.7702 98.0803 34.5187 99.1491 34.5187C100.061 34.5187 100.807 34.6838 101.397 35.006V34.6602C101.397 34.1258 101.181 33.6778 100.752 33.3084C100.332 32.9312 99.8408 32.7425 99.2749 32.7425C98.4143 32.7425 97.7384 33.1041 97.2472 33.8271L95.8954 32.9783C96.6381 31.9094 97.7384 31.375 99.1963 31.375Z" fill="#747474"/>
<path d="M106.072 27.8701V39.8163H104.532V27.8701H106.072Z" fill="#747474"/>
<path d="M115.128 31.6426L110.004 43.4159H108.432L110.334 39.2976L106.955 31.6426H108.621L111.057 37.5214H111.089L113.462 31.6426H115.128Z" fill="#747474"/>
<path d="M119.348 39.9418C118.687 39.9418 118.137 39.7375 117.697 39.3288C117.257 38.9201 117.029 38.3503 117.021 37.6154V33.0413H115.575V31.6423H117.021V29.1431H118.546V31.6423H120.558V33.0413H118.546V37.1124C118.546 37.6587 118.648 38.032 118.86 38.2285C119.08 38.4171 119.32 38.5114 119.583 38.5114C119.709 38.5114 119.827 38.5035 119.945 38.48C120.059 38.4485 120.169 38.4132 120.275 38.3699L120.747 39.7375C120.346 39.8711 119.882 39.9418 119.348 39.9418Z" fill="#747474"/>
<path d="M123.918 28.8287C123.918 29.1235 123.808 29.3789 123.588 29.5989C123.375 29.8111 123.124 29.9133 122.833 29.9133C122.527 29.9133 122.271 29.8111 122.063 29.5989C121.851 29.3789 121.748 29.1235 121.748 28.8287C121.748 28.5261 121.851 28.2707 122.063 28.0585C122.271 27.8502 122.527 27.7441 122.833 27.7441C123.124 27.7441 123.375 27.8502 123.588 28.0585C123.808 28.2707 123.918 28.5261 123.918 28.8287ZM123.603 31.6424V39.8161H122.063V31.6424H123.603Z" fill="#747474"/>
<path d="M128.778 40.0832C127.559 40.0832 126.553 39.6705 125.76 38.8414C124.974 38.0044 124.581 36.9669 124.581 35.7291C124.581 34.4716 124.974 33.4341 125.76 32.6168C126.553 31.7915 127.559 31.375 128.778 31.375C129.615 31.375 130.342 31.5872 130.963 32.0037C131.579 32.4242 132.047 33.0019 132.362 33.7328L130.963 34.3144C130.53 33.2888 129.772 32.774 128.683 32.774C127.98 32.774 127.371 33.0569 126.86 33.6228C126.357 34.1886 126.105 34.8921 126.105 35.7291C126.105 36.57 126.357 37.2695 126.86 37.8354C127.371 38.4013 127.98 38.6842 128.683 38.6842C129.803 38.6842 130.589 38.1733 131.041 37.1438L132.409 37.7254C132.114 38.4602 131.646 39.0379 131.01 39.4544C130.369 39.871 129.626 40.0832 128.778 40.0832Z" fill="#747474"/>
<path d="M140 37.5524C140 38.2676 139.686 38.8689 139.057 39.3601C138.436 39.8395 137.658 40.0832 136.715 40.0832C135.897 40.0832 135.174 39.867 134.546 39.4387C133.925 39.0104 133.481 38.4445 133.21 37.7411L134.577 37.1595C134.785 37.6546 135.08 38.0358 135.457 38.3069C135.842 38.582 136.263 38.7156 136.715 38.7156C137.206 38.7156 137.615 38.6135 137.941 38.4013C138.275 38.193 138.444 37.9415 138.444 37.6468C138.444 37.1241 138.039 36.7429 137.234 36.4993L135.835 36.1535C134.239 35.7448 133.445 34.9746 133.445 33.8428C133.445 33.1001 133.748 32.5028 134.357 32.0509C134.962 31.6029 135.74 31.375 136.683 31.375C137.406 31.375 138.059 31.5479 138.648 31.8937C139.234 32.2395 139.642 32.7032 139.874 33.277L138.507 33.8428C138.35 33.497 138.09 33.2298 137.737 33.0412C137.391 32.8447 137.002 32.7425 136.573 32.7425C136.173 32.7425 135.811 32.8447 135.489 33.0412C135.174 33.2416 135.017 33.4892 135.017 33.78C135.017 34.2437 135.457 34.5777 136.338 34.786L137.564 35.1003C139.187 35.5012 140 36.3185 140 37.5524Z" fill="#747474"/>
<path d="M61.0993 13.028V38.3472C61.0993 41.1824 63.0534 42.7589 65.1274 42.7589C67.0455 42.7589 69.1554 41.4162 69.1554 38.3472V13.2199C69.1554 10.6244 67.2373 9 65.1274 9C63.0174 9 61.0993 10.7922 61.0993 13.028Z" fill="#F8AB00"/>
<path d="M50.5497 25.8796V38.3474C50.5497 41.1826 52.5037 42.7591 54.5777 42.7591C56.4958 42.7591 58.6057 41.4164 58.6057 38.3474V26.0714C58.6057 23.476 56.6876 21.8516 54.5777 21.8516C52.4678 21.8516 50.5497 23.6438 50.5497 25.8796Z" fill="#E37300"/>
<path d="M48.0561 38.7307C48.0561 40.9545 46.2519 42.7587 44.028 42.7587C41.8042 42.7587 40 40.9545 40 38.7307C40 36.5069 41.8042 34.7026 44.028 34.7026C46.2519 34.7026 48.0561 36.5069 48.0561 38.7307Z" fill="#E37300"/>
</g>
<defs>
<clipPath id="clip0_14752_924">
<rect width="180" height="52" fill="white"/>
</clipPath>
</defs>
</svg>
