<svg width="180" height="52" viewBox="0 0 180 52" fill="none" xmlns="http://www.w3.org/2000/svg">
<rect x="0.5" y="0.5" width="179" height="51" rx="3.5" fill="white" fill-opacity="0.9"/>
<rect x="0.5" y="0.5" width="179" height="51" rx="3.5" stroke="#F2F2F2"/>
<g clip-path="url(#clip0_3517_123)">
<g clip-path="url(#clip1_3517_123)">
<path d="M40.0454 36.5195L36.0675 32.6406L44.6105 23.9167L48.729 27.9531L40.0454 36.5195Z" fill="#8AB4F8"/>
<path d="M40.0622 19.3698L36.0987 15.3229L27.432 23.9075C26.3148 25.0247 26.3148 26.8359 27.432 27.9544L35.9685 36.5469L40.0049 32.7708L33.501 25.931L40.0622 19.3698Z" fill="#4285F4"/>
<path d="M48.6716 23.974L40.0779 15.3802C38.9594 14.2618 37.1456 14.2618 36.0271 15.3802C34.9086 16.4987 34.9086 18.3125 36.0271 19.431L44.6208 28.0248C45.7393 29.1433 47.5531 29.1433 48.6716 28.0248C49.7901 26.9063 49.7901 25.0925 48.6716 23.974Z" fill="#8AB4F8"/>
<path d="M37.9868 37.4583C39.5329 37.4583 40.7863 36.205 40.7863 34.6589C40.7863 33.1127 39.5329 31.8594 37.9868 31.8594C36.4407 31.8594 35.1873 33.1127 35.1873 34.6589C35.1873 36.205 36.4407 37.4583 37.9868 37.4583Z" fill="#246FDB"/>
</g>
<path d="M62.8966 21.6724V32.5H61.3104V21.6724H57.8622V20.1552H66.3449V21.6724H62.8966ZM67.5836 29.9138C67.5836 30.3276 67.756 30.6724 68.1008 30.9483C68.4572 31.2241 68.871 31.3621 69.3422 31.3621C70.0089 31.3621 70.6008 31.1149 71.1181 30.6207C71.6468 30.1264 71.9112 29.546 71.9112 28.8793C71.4169 28.4885 70.7273 28.2931 69.8422 28.2931C69.1985 28.2931 68.6583 28.4483 68.2215 28.7586C67.7962 29.069 67.5836 29.454 67.5836 29.9138ZM69.6353 23.7759C70.8077 23.7759 71.733 24.092 72.4112 24.7241C73.0893 25.3448 73.4284 26.2011 73.4284 27.2931V32.5H71.9112V31.3276H71.8422C71.187 32.2931 70.3135 32.7759 69.2215 32.7759C68.2905 32.7759 67.5089 32.5 66.8767 31.9483C66.256 31.3966 65.9457 30.7069 65.9457 29.8793C65.9457 29.0057 66.2733 28.3103 66.9284 27.7931C67.5951 27.2759 68.4802 27.0172 69.5836 27.0172C70.5261 27.0172 71.302 27.1897 71.9112 27.5345V27.1724C71.9112 26.6207 71.6928 26.1552 71.256 25.7759C70.8192 25.3851 70.3077 25.1897 69.7215 25.1897C68.8365 25.1897 68.1353 25.5632 67.6181 26.3103L66.2215 25.431C66.9916 24.3276 68.1296 23.7759 69.6353 23.7759ZM78.9264 31.3276C79.708 31.3276 80.3459 31.046 80.8402 30.4828C81.3574 29.9195 81.6161 29.1839 81.6161 28.2759C81.6161 27.3908 81.3574 26.6609 80.8402 26.0862C80.3345 25.5115 79.6965 25.2241 78.9264 25.2241C78.1678 25.2241 77.5299 25.5115 77.0126 26.0862C76.4954 26.6609 76.2368 27.3908 76.2368 28.2759C76.2368 29.1724 76.4954 29.9023 77.0126 30.4655C77.5299 31.0402 78.1678 31.3276 78.9264 31.3276ZM78.8747 36.5C78.4034 36.5 77.9609 36.4368 77.5471 36.3103C77.1333 36.1954 76.754 36.0287 76.4092 35.8103C76.0758 35.592 75.7885 35.3333 75.5471 35.0345C75.3057 34.7356 75.1218 34.4023 74.9954 34.0345L76.4954 33.4138C76.6678 33.908 76.9666 34.3046 77.3919 34.6034C77.8172 34.9023 78.3115 35.0517 78.8747 35.0517C79.7368 35.0517 80.4092 34.7931 80.8919 34.2759C81.3747 33.7586 81.6161 33.046 81.6161 32.1379V31.3276H81.5471C81.2482 31.7759 80.8402 32.1322 80.323 32.3966C79.8172 32.6494 79.2655 32.7759 78.6678 32.7759C77.5643 32.7759 76.6161 32.3448 75.823 31.4828C75.0414 30.5977 74.6505 29.5287 74.6505 28.2759C74.6505 27.023 75.0414 25.9598 75.823 25.0862C76.6161 24.2126 77.5643 23.7759 78.6678 23.7759C79.2655 23.7759 79.8172 23.908 80.323 24.1724C80.8402 24.4253 81.2482 24.7759 81.5471 25.2241H81.6161V24.0517H83.1333V32.1379C83.1333 33.4943 82.7482 34.5575 81.9781 35.3276C81.1965 36.1092 80.162 36.5 78.8747 36.5ZM90.7178 32.5H89.1316V20.1552H90.7178L95.0109 27.6724H95.0798L99.3729 20.1552H100.959V32.5H99.3729V25.1724L99.4419 23.1034H99.3729L95.5109 29.8793H94.5798L90.7178 23.1034H90.6488L90.7178 25.1724V32.5ZM104.07 29.9138C104.07 30.3276 104.242 30.6724 104.587 30.9483C104.944 31.2241 105.357 31.3621 105.829 31.3621C106.495 31.3621 107.087 31.1149 107.604 30.6207C108.133 30.1264 108.398 29.546 108.398 28.8793C107.903 28.4885 107.214 28.2931 106.329 28.2931C105.685 28.2931 105.145 28.4483 104.708 28.7586C104.283 29.069 104.07 29.454 104.07 29.9138ZM106.122 23.7759C107.294 23.7759 108.219 24.092 108.898 24.7241C109.576 25.3448 109.915 26.2011 109.915 27.2931V32.5H108.398V31.3276H108.329C107.673 32.2931 106.8 32.7759 105.708 32.7759C104.777 32.7759 103.995 32.5 103.363 31.9483C102.742 31.3966 102.432 30.7069 102.432 29.8793C102.432 29.0057 102.76 28.3103 103.415 27.7931C104.081 27.2759 104.967 27.0172 106.07 27.0172C107.013 27.0172 107.788 27.1897 108.398 27.5345V27.1724C108.398 26.6207 108.179 26.1552 107.742 25.7759C107.306 25.3851 106.794 25.1897 106.208 25.1897C105.323 25.1897 104.622 25.5632 104.104 26.3103L102.708 25.431C103.478 24.3276 104.616 23.7759 106.122 23.7759ZM111.704 24.0517H113.221V25.2241H113.29C113.531 24.8103 113.899 24.4655 114.394 24.1897C114.899 23.9138 115.422 23.7759 115.963 23.7759C116.997 23.7759 117.79 24.0747 118.342 24.6724C118.905 25.2586 119.187 26.0977 119.187 27.1897V32.5H117.6V27.2931C117.566 25.9138 116.871 25.2241 115.514 25.2241C114.882 25.2241 114.353 25.4828 113.928 26C113.503 26.5057 113.29 27.1149 113.29 27.8276V32.5H111.704V24.0517ZM122.12 29.9138C122.12 30.3276 122.292 30.6724 122.637 30.9483C122.993 31.2241 123.407 31.3621 123.878 31.3621C124.545 31.3621 125.137 31.1149 125.654 30.6207C126.183 30.1264 126.447 29.546 126.447 28.8793C125.953 28.4885 125.263 28.2931 124.378 28.2931C123.735 28.2931 123.194 28.4483 122.757 28.7586C122.332 29.069 122.12 29.454 122.12 29.9138ZM124.171 23.7759C125.344 23.7759 126.269 24.092 126.947 24.7241C127.625 25.3448 127.964 26.2011 127.964 27.2931V32.5H126.447V31.3276H126.378C125.723 32.2931 124.849 32.7759 123.757 32.7759C122.826 32.7759 122.045 32.5 121.413 31.9483C120.792 31.3966 120.482 30.7069 120.482 29.8793C120.482 29.0057 120.809 28.3103 121.464 27.7931C122.131 27.2759 123.016 27.0172 124.12 27.0172C125.062 27.0172 125.838 27.1897 126.447 27.5345V27.1724C126.447 26.6207 126.229 26.1552 125.792 25.7759C125.355 25.3851 124.844 25.1897 124.257 25.1897C123.372 25.1897 122.671 25.5632 122.154 26.3103L120.757 25.431C121.528 24.3276 122.666 23.7759 124.171 23.7759ZM133.462 31.3276C134.244 31.3276 134.882 31.046 135.376 30.4828C135.893 29.9195 136.152 29.1839 136.152 28.2759C136.152 27.3908 135.893 26.6609 135.376 26.0862C134.87 25.5115 134.232 25.2241 133.462 25.2241C132.704 25.2241 132.066 25.5115 131.549 26.0862C131.031 26.6609 130.773 27.3908 130.773 28.2759C130.773 29.1724 131.031 29.9023 131.549 30.4655C132.066 31.0402 132.704 31.3276 133.462 31.3276ZM133.411 36.5C132.939 36.5 132.497 36.4368 132.083 36.3103C131.669 36.1954 131.29 36.0287 130.945 35.8103C130.612 35.592 130.324 35.3333 130.083 35.0345C129.842 34.7356 129.658 34.4023 129.531 34.0345L131.031 33.4138C131.204 33.908 131.503 34.3046 131.928 34.6034C132.353 34.9023 132.847 35.0517 133.411 35.0517C134.273 35.0517 134.945 34.7931 135.428 34.2759C135.911 33.7586 136.152 33.046 136.152 32.1379V31.3276H136.083C135.784 31.7759 135.376 32.1322 134.859 32.3966C134.353 32.6494 133.801 32.7759 133.204 32.7759C132.1 32.7759 131.152 32.3448 130.359 31.4828C129.577 30.5977 129.187 29.5287 129.187 28.2759C129.187 27.023 129.577 25.9598 130.359 25.0862C131.152 24.2126 132.1 23.7759 133.204 23.7759C133.801 23.7759 134.353 23.908 134.859 24.1724C135.376 24.4253 135.784 24.7759 136.083 25.2241H136.152V24.0517H137.669V32.1379C137.669 33.4943 137.284 34.5575 136.514 35.3276C135.732 36.1092 134.698 36.5 133.411 36.5ZM143.312 32.7759C142.071 32.7759 141.048 32.3506 140.243 31.5C139.439 30.6494 139.036 29.5747 139.036 28.2759C139.036 26.9885 139.427 25.9195 140.209 25.069C140.99 24.2069 141.99 23.7759 143.209 23.7759C144.462 23.7759 145.456 24.1839 146.191 25C146.939 25.8046 147.312 26.9368 147.312 28.3966L147.295 28.569H140.657C140.68 29.3966 140.956 30.0632 141.485 30.569C142.013 31.0747 142.646 31.3276 143.381 31.3276C144.393 31.3276 145.186 30.8218 145.76 29.8103L147.174 30.5C146.795 31.2126 146.266 31.7701 145.588 32.1724C144.921 32.5747 144.163 32.7759 143.312 32.7759ZM140.778 27.2586H145.623C145.577 26.6724 145.335 26.1897 144.898 25.8103C144.473 25.4195 143.898 25.2241 143.174 25.2241C142.577 25.2241 142.059 25.408 141.623 25.7759C141.197 26.1437 140.916 26.6379 140.778 27.2586ZM150.349 32.5H148.763V24.0517H150.28V25.431H150.349C150.51 24.9828 150.837 24.6034 151.332 24.2931C151.837 23.9713 152.332 23.8103 152.814 23.8103C153.274 23.8103 153.665 23.8793 153.987 24.0172L153.504 25.5517C153.309 25.4713 152.998 25.431 152.573 25.431C151.975 25.431 151.452 25.6724 151.004 26.1552C150.567 26.6379 150.349 27.2011 150.349 27.8448V32.5Z" fill="#747474"/>
</g>
<defs>
<clipPath id="clip0_3517_123">
<rect width="128.897" height="25" fill="white" transform="translate(25.5518 13.5)"/>
</clipPath>
<clipPath id="clip1_3517_123">
<rect width="25" height="25" fill="white" transform="translate(25.5518 13.5)"/>
</clipPath>
</defs>
</svg>
