<svg width="180" height="52" viewBox="0 0 180 52" fill="none" xmlns="http://www.w3.org/2000/svg">
<rect x="0.5" y="0.5" width="179" height="51" rx="3.5" fill="white" fill-opacity="0.9"/>
<rect x="0.5" y="0.5" width="179" height="51" rx="3.5" stroke="#F2F2F2"/>
<path d="M61.8221 13.5001C62.2196 13.4983 62.6135 13.5777 62.9814 13.7337C63.3493 13.8898 63.684 14.1195 63.9663 14.4096C64.2486 14.6998 64.4731 15.0448 64.6268 15.425C64.7805 15.8051 64.8606 16.2129 64.8623 16.6251V35.3819C64.8597 35.7941 64.7788 36.2017 64.6243 36.5815C64.4697 36.9613 64.2445 37.3058 63.9616 37.5953C63.6787 37.8848 63.3435 38.1137 62.9753 38.2689C62.607 38.4242 62.2129 38.5025 61.8154 38.4999H43.5474C43.1493 38.5025 42.7547 38.4239 42.386 38.2683C42.0173 38.1126 41.6819 37.8831 41.3988 37.5928C41.1158 37.3026 40.8908 36.9573 40.7367 36.5767C40.5825 36.1961 40.5023 35.7877 40.5005 35.3749V16.6251C40.5023 16.2123 40.5825 15.8039 40.7367 15.4234C40.8908 15.0428 41.1158 14.6975 41.3988 14.4072C41.6819 14.1169 42.0173 13.8874 42.386 13.7317C42.7547 13.5761 43.1493 13.4974 43.5474 13.5001H61.8221ZM44.4804 31.0171C44.2671 31.034 44.069 31.1377 43.9291 31.3055C43.8612 31.3884 43.8098 31.4844 43.7777 31.588C43.7457 31.6915 43.7337 31.8006 43.7424 31.909C43.7511 32.0174 43.7804 32.1229 43.8285 32.2196C43.8766 32.3162 43.9427 32.4021 44.0229 32.4722C44.1501 32.5833 47.1434 35.1735 52.668 35.1735C58.1926 35.1735 61.206 32.5694 61.3132 32.4583L61.3199 32.4652C61.4779 32.3219 61.575 32.1197 61.59 31.9025C61.6051 31.6853 61.5369 31.4708 61.4002 31.3055C61.2583 31.1388 61.0592 31.0361 60.8454 31.0193C60.6315 31.0024 60.4198 31.0727 60.2551 31.2152C60.2283 31.2361 57.5163 33.5138 52.6613 33.5138C47.8064 33.5138 45.1144 31.2499 45.0675 31.2152C44.9047 31.0714 44.6936 31.0002 44.4804 31.0171ZM124.232 21.3746C126.801 21.3746 127.912 23.1436 127.912 25.9841C127.912 28.8618 126.789 30.5935 124.232 30.5935C121.628 30.5935 120.541 28.8618 120.541 25.9841C120.541 23.1936 121.64 21.3746 124.232 21.3746ZM52.6948 16.8265C52.4799 16.8265 52.2738 16.915 52.1218 17.0726C51.9699 17.2302 51.8845 17.4439 51.8845 17.6668V29.75C51.8845 29.9728 51.9699 30.1866 52.1218 30.3441C52.2738 30.5017 52.4799 30.5902 52.6948 30.5902C52.9097 30.5902 53.1158 30.5017 53.2677 30.3441C53.4197 30.1866 53.5051 29.9728 53.5051 29.75V17.6668C53.5051 17.4439 53.4197 17.2302 53.2677 17.0726C53.1158 16.915 52.9097 16.8265 52.6948 16.8265ZM115.607 21.3746C116.551 21.3746 117.28 21.5992 117.829 22.0849C118.307 22.4833 118.653 23.0444 118.856 23.8293C118.964 24.2404 118.689 24.6515 118.235 24.7388C117.805 24.8135 117.459 24.5269 117.328 24.1158C117.184 23.7174 116.993 23.4309 116.766 23.2309C116.455 22.9444 116.073 22.8198 115.571 22.8198C115.034 22.8198 114.567 22.9817 114.221 23.3428C113.719 23.8658 113.504 24.8008 113.504 25.9841C113.504 27.1555 113.707 28.0896 114.233 28.6126C114.579 28.9737 115.034 29.1356 115.559 29.1356C116.108 29.1356 116.526 28.9864 116.873 28.6499C117.052 28.4753 117.208 28.2515 117.315 27.9896C117.471 27.6031 117.793 27.3166 118.211 27.4166C118.629 27.5166 118.892 27.9396 118.761 28.3507C118.545 29.0356 118.175 29.5841 117.674 29.9579C117.124 30.3689 116.443 30.5808 115.583 30.5808C114.484 30.5808 113.791 30.2443 113.265 29.7714C112.369 28.9364 111.963 27.6285 111.963 25.9841C111.963 24.3269 112.357 23.0317 113.242 22.2095C113.791 21.7111 114.531 21.3746 115.607 21.3746ZM104.546 21.5108L104.593 21.5119H107.424C109.372 21.5119 110.184 22.8325 110.184 24.1777C110.184 25.4389 109.491 26.3751 108.299 26.6436L108.236 26.6571L109.73 29.4222C109.933 29.7833 109.801 30.2443 109.383 30.4689C108.99 30.6743 108.562 30.5287 108.352 30.1911L108.332 30.1579L106.672 26.9563H105.095L105.107 29.6722C105.107 30.096 104.797 30.4443 104.354 30.4443C103.938 30.4443 103.633 30.1166 103.615 29.7116L103.614 29.6722V22.496C103.614 21.8808 103.926 21.5241 104.5 21.5111L104.546 21.5108ZM79.2435 21.5111C79.9961 21.5111 80.3064 21.9349 80.6054 22.5579L82.0864 25.5857L83.3528 28.5261L83.3171 25.7103L83.3051 22.3095C83.3051 21.8857 83.6154 21.5373 84.0577 21.5373C84.4867 21.5365 84.7974 21.8849 84.7974 22.3087V29.0364C84.7974 29.946 84.3317 30.457 83.5911 30.457H83.5318C82.8271 30.457 82.4921 30.0333 82.1938 29.4102L80.6884 26.3579L79.3505 23.2063L79.3865 26.2587L79.3985 29.6595C79.3985 30.0833 79.0881 30.4316 78.6458 30.4316C78.2158 30.4316 77.9055 30.0825 77.9055 29.6595V22.9317C77.9055 22.0968 78.3711 21.5111 79.1838 21.5111H79.2435ZM74.4045 21.5365C74.8345 21.5365 75.1452 21.8857 75.1452 22.3087V29.6714C75.1452 30.0952 74.8345 30.4435 74.3925 30.4435C73.9625 30.4435 73.6518 30.0944 73.6518 29.6714V22.3087C73.6518 21.8849 73.9625 21.5365 74.4045 21.5365ZM138.185 21.5373C139.022 21.5373 139.487 22.0603 139.487 22.9952L139.5 29.6594C139.5 30.0833 139.189 30.4316 138.747 30.4316C138.317 30.4316 138.006 30.0825 138.006 29.6594V26.3206L138.042 23.069L137.003 26.3706L135.952 29.6221C135.773 30.1951 135.402 30.4197 134.936 30.4197C134.446 30.4197 134.088 30.1833 133.897 29.6102L132.822 26.3714L131.83 23.1198L131.866 26.3214V29.6602C131.866 30.0841 131.555 30.4324 131.113 30.4324C130.683 30.4324 130.373 30.0833 130.373 29.6602V22.9952C130.373 22.073 130.85 21.5373 131.687 21.5373C132.475 21.5373 132.917 21.973 133.168 22.7706L134.267 26.1714L134.936 28.4888L135.617 26.1714L136.716 22.7706C136.967 21.973 137.397 21.5373 138.185 21.5373ZM92.6343 21.5373C93.0163 21.5373 93.327 21.8365 93.327 22.2722C93.327 22.696 93.0163 22.9944 92.6343 22.9944H90.7827V29.6595C90.7827 30.0833 90.4724 30.4316 90.03 30.4316C89.6004 30.4316 89.2897 30.0825 89.2897 29.6595V22.9944H87.4381C87.0561 22.9944 86.7457 22.6952 86.7457 22.2595C86.7457 21.8357 87.0561 21.5373 87.4381 21.5373H92.6343ZM96.254 21.5119H100.555C100.937 21.5119 101.247 21.823 101.247 22.2468C101.247 22.6706 100.937 22.969 100.555 22.969H96.7553V25.1119H100.112C100.483 25.1119 100.781 25.3984 100.781 25.8095C100.781 26.2206 100.483 26.5071 100.112 26.5071H96.7553V28.9737H100.555C100.937 28.9737 101.247 29.2849 101.247 29.7087C101.247 30.1325 100.937 30.4309 100.555 30.4309H96.218C95.597 30.4316 95.251 30.0706 95.2743 29.4102V22.496C95.2743 21.8484 95.6206 21.4873 96.254 21.5119ZM48.6568 17.2848C48.4412 17.2734 48.2299 17.3511 48.0694 17.5007C47.9087 17.6504 47.8118 17.8599 47.7997 18.0834V29.1944C47.7997 29.4173 47.885 29.631 48.037 29.7886C48.1889 29.9462 48.395 30.0347 48.6099 30.0347C48.8248 30.0347 49.0309 29.9462 49.1829 29.7886C49.3348 29.631 49.4202 29.4173 49.4202 29.1944V18.0834C49.4106 17.876 49.3273 17.6796 49.1863 17.5322C49.0453 17.3847 48.8567 17.2966 48.6568 17.2848ZM56.7127 17.2431C56.4978 17.2431 56.2917 17.3317 56.1397 17.4893C55.9878 17.6468 55.9024 17.8606 55.9024 18.0834V29.1944C55.9024 29.4173 55.9878 29.631 56.1397 29.7886C56.2917 29.9462 56.4978 30.0347 56.7127 30.0347C56.9276 30.0347 57.1337 29.9462 57.2856 29.7886C57.4376 29.631 57.523 29.4173 57.523 29.1944V18.0834C57.523 17.8606 57.4376 17.6468 57.2856 17.4893C57.1337 17.3317 56.9276 17.2431 56.7127 17.2431ZM124.22 22.8325C122.822 22.8325 122.082 23.8666 122.082 25.9841C122.082 28.1023 122.799 29.1356 124.22 29.1356C125.63 29.1356 126.382 28.1015 126.382 25.9841C126.382 23.8658 125.642 22.8325 124.22 22.8325ZM60.7842 18.9098C60.5693 18.9098 60.3632 18.9983 60.2112 19.1559C60.0592 19.3135 59.9739 19.5272 59.9739 19.7501V27.2569C59.9739 27.4798 60.0592 27.6935 60.2112 27.8511C60.3632 28.0087 60.5693 28.0972 60.7842 28.0972C60.9991 28.0972 61.2052 28.0087 61.3571 27.8511C61.5091 27.6935 61.5944 27.4798 61.5944 27.2569V19.7501C61.5944 19.5272 61.5091 19.3135 61.3571 19.1559C61.2052 18.9983 60.9991 18.9098 60.7842 18.9098ZM44.5921 18.9515C44.3764 18.9401 44.1652 19.0177 44.0046 19.1674C43.844 19.317 43.747 19.5265 43.7349 19.7501V27.243C43.7349 27.4659 43.8203 27.6796 43.9722 27.8372C44.1242 27.9948 44.3303 28.0833 44.5452 28.0833C44.7601 28.0833 44.9662 27.9948 45.1181 27.8372C45.2701 27.6796 45.3554 27.4659 45.3554 27.243V19.7501C45.3458 19.5426 45.2625 19.3463 45.1215 19.1988C44.9806 19.0514 44.7919 18.9632 44.5921 18.9515ZM107.447 22.9682H105.094V25.5476H107.459C108.26 25.5476 108.678 25.0119 108.678 24.2516C108.678 23.4912 108.236 22.9682 107.447 22.9682Z" fill="black"/>
</svg>
