<svg width="180" height="52" viewBox="0 0 180 52" fill="none" xmlns="http://www.w3.org/2000/svg">
<g clip-path="url(#clip0_14754_993)">
<path d="M176 0.5H4C2.067 0.5 0.5 2.067 0.5 4V48C0.5 49.933 2.067 51.5 4 51.5H176C177.933 51.5 179.5 49.933 179.5 48V4C179.5 2.067 177.933 0.5 176 0.5Z" fill="white" fill-opacity="0.9"/>
<path d="M176 0.5H4C2.067 0.5 0.5 2.067 0.5 4V48C0.5 49.933 2.067 51.5 4 51.5H176C177.933 51.5 179.5 49.933 179.5 48V4C179.5 2.067 177.933 0.5 176 0.5Z" stroke="#F2F2F2"/>
<mask id="mask0_14754_993" style="mask-type:luminance" maskUnits="userSpaceOnUse" x="42" y="17" width="97" height="18">
<path d="M138.324 17H42V35H138.324V17Z" fill="white"/>
</mask>
<g mask="url(#mask0_14754_993)">
<path d="M105.548 32.5466C106.818 32.5767 108.042 32.1102 108.96 31.2373L110.643 33.0282C109.526 34.1569 107.981 34.9997 105.578 34.9997C101.447 34.9997 98.7847 32.3059 98.7847 28.6639C98.7847 25.052 101.585 22.328 105.196 22.328C109.297 22.328 111.607 25.3981 111.408 29.6421H101.738C102.074 31.4179 103.344 32.5466 105.548 32.5466ZM108.486 27.6254C108.226 25.985 107.231 24.766 105.227 24.766C103.36 24.766 102.074 25.8045 101.738 27.6254H108.486ZM42 32.4112L49.452 24.9617H42.1683V22.629H52.8949V25.0219L45.4582 32.4563H53.002V34.789H42V32.4112ZM61.3567 32.5466C62.6268 32.5767 63.8509 32.1102 64.769 31.2373L66.4522 33.0282C65.3352 34.1569 63.7897 34.9997 61.3873 34.9997C57.2711 34.9997 54.5933 32.3059 54.5933 28.6639C54.5933 25.052 57.3936 22.328 61.0048 22.328C65.1056 22.328 67.4162 25.3981 67.2173 29.6421H57.5466C57.8985 31.4179 59.1533 32.5466 61.3567 32.5466ZM64.3099 27.6254C64.0498 25.985 63.0552 24.766 61.0507 24.766C59.1839 24.766 57.8985 25.8045 57.5619 27.6254H64.3099ZM83.3147 28.6789C83.3147 24.7811 86.2679 22.3581 89.5272 22.3581C91.1645 22.3581 92.7252 23.0654 93.6433 24.1791V17.0005H96.2752V34.7589H93.6433V33.0734C92.6946 34.2623 91.1339 34.9997 89.4966 34.9997C86.3444 34.9997 83.3147 32.5466 83.3147 28.6789ZM93.7964 28.6488C93.7964 26.4817 92.1285 24.7058 89.8791 24.7058C87.6757 24.7058 85.9619 26.4365 85.9619 28.6488C85.9619 30.8611 87.6757 32.6068 89.8791 32.6068C92.1285 32.6219 93.7964 30.846 93.7964 28.6488ZM113.122 32.1704L115.509 30.9514C116.152 32.0801 117.376 32.7573 118.692 32.7272C120.176 32.7272 120.957 31.9748 120.957 31.1169C120.957 30.1387 119.518 29.928 117.958 29.612C115.846 29.1755 113.658 28.4983 113.658 25.985C113.658 24.0587 115.525 22.2829 118.447 22.313C120.758 22.313 122.472 23.2159 123.436 24.6757L121.217 25.8797C120.651 25.0219 119.671 24.4951 118.432 24.4951C117.009 24.4951 116.29 25.1724 116.29 25.9549C116.29 26.8278 117.437 27.0686 119.228 27.4599C121.263 27.8963 123.573 28.5585 123.573 31.0868C123.573 32.7724 122.089 35.0298 118.554 34.9997C115.984 34.9997 114.163 33.9764 113.122 32.1704ZM130.719 29.3561L128.638 31.5985V34.7589H126.006V17.0005H128.638V28.6187L134.223 22.5989H137.421L132.586 27.806L137.559 34.7589H134.575L130.719 29.3561ZM75.3578 22.3431C72.2209 22.3431 69.6043 24.3446 69.6043 27.6405V34.7589H72.2974V27.9866C72.2974 25.985 73.4604 24.7961 75.4496 24.7961C77.4388 24.7961 78.4334 25.985 78.4334 27.9866V34.7589H81.1112V27.6555C81.1112 24.3446 78.4946 22.3431 75.3578 22.3431Z" fill="#16140C"/>
</g>
</g>
<defs>
<clipPath id="clip0_14754_993">
<rect width="180" height="52" fill="white"/>
</clipPath>
</defs>
</svg>
